<svg width="803" height="1008" viewBox="0 0 803 1008" fill="none" xmlns="http://www.w3.org/2000/svg">
<path fill-rule="evenodd" clip-rule="evenodd" d="M174.329 640.681C187.684 517.34 158.678 394.083 67.9456 340.056L138.126 228.725C298.94 324.483 333.24 508.223 317.247 655.922C309.057 731.566 287.409 804.64 257.234 863.754C228.85 919.36 188.341 965.206 129.007 987.288L75.9134 865.039C67.9456 865.039 74.0264 849.539 117.007 808.025C138.714 765.5 167.846 700.558 174.329 640.681Z" fill="#1565C0"/>
<path fill-rule="evenodd" clip-rule="evenodd" d="M286.724 675.401C299.374 570.004 299.538 459.554 271.325 384.833L365.241 349.373C402.498 448.047 399.389 579.112 386.396 687.364C373.279 796.654 348.563 894.003 334.53 930.202L240.93 893.919C250.903 868.191 274.199 779.759 286.724 675.401Z" fill="#F3C223"/>
<path fill-rule="evenodd" clip-rule="evenodd" d="M360.426 798.222C394.391 794.885 397.845 801.422 425.067 795.714L464.209 956.674C412.733 967.467 361.678 966.95 320.385 964.92C302.041 964.018 286.924 962.976 273.764 962.069C258.982 961.051 246.669 960.202 235.024 959.913C235.308 960.941 235.609 962.004 235.929 963.104L73.6056 992.949C59.8671 945.747 41.8909 897.553 81.9289 848.743C122.161 799.695 185.707 795.506 217.462 794.885C241.426 794.416 271.932 796.447 298.599 798.222C309.957 798.978 351.262 797.772 360.426 798.222ZM230.569 934.369C230.569 934.369 230.566 934.423 230.553 934.524C230.561 934.418 230.569 934.369 230.569 934.369ZM206.376 961.009C205.813 961.181 205.493 961.244 205.473 961.232C205.453 961.22 205.735 961.133 206.376 961.009Z" fill="#1565C0"/>
<path fill-rule="evenodd" clip-rule="evenodd" d="M385.387 291.974C385.659 291.933 385.681 291.929 385.466 291.987L406.141 286.413L427.129 290.661C664.738 338.756 816.266 477.439 802.083 655.368C788.603 824.495 628.132 949.073 420.738 975.847L397.48 795.69C558.424 774.912 617.031 690.791 621.005 640.935C624.185 601.04 595.518 503.991 406.141 483.466C388.73 481.579 337.363 474.291 302.23 468.325C255.157 460.331 200.586 443.611 150.556 413.761C100.173 383.701 51.0963 338.186 23.2133 272.238C-5.05422 205.381 -7.22597 127.704 18.6041 42.0955L192.513 94.5681C176.515 147.589 181.75 180.741 190.526 201.498C199.687 223.164 217.291 242.05 243.629 257.765C270.32 273.69 302.51 284.119 332.642 289.236C347.451 291.751 360.566 292.774 370.848 292.81C379.715 292.841 384.354 292.132 385.387 291.974Z" fill="#1565C0"/>
<path d="M7.56156 28.7056C7.56156 125.059 44.0761 235.974 109.072 304.104C174.065 372.238 262.219 410.516 354.135 410.516C446.052 410.516 534.205 372.238 599.2 304.108C664.195 235.974 700.08 125.059 700.08 28.7056C586.919 9.77901 509.496 -3.37293 337.782 2.28799C166.067 7.94891 135.047 6.74087 7.56156 28.7056Z" fill="#F3C223"/>
<path d="M566.861 1007.67C566.861 969.633 540.419 933.155 493.353 906.262C446.289 879.367 382.454 864.257 315.894 864.257C249.334 864.257 185.499 879.367 138.433 906.26C91.3675 933.155 64.9263 969.633 64.9263 1007.67H315.894H566.861Z" fill="#F3C223"/>
<path d="M381.182 809.912L418.921 806.138L430.243 879.73L381.182 868.409V809.912Z" fill="#1565C0"/>
<path d="M141.536 789.155L258.529 772.173L249.094 821.234L103.797 847.652L124.554 821.234L141.536 789.155Z" fill="#1565C0"/>
<path d="M130.215 381.569L277.399 443.84L279.286 485.353L175.503 464.596L154.746 415.535L130.215 381.569Z" fill="#1565C0"/>
</svg>
