<svg width="1008" height="927" viewBox="0 0 1008 927" fill="none" xmlns="http://www.w3.org/2000/svg">
<mask id="path-1-inside-1_231_26" fill="white">
<path fill-rule="evenodd" clip-rule="evenodd" d="M501.563 748.384C757.278 744.549 963.915 637.266 957.823 508.068C951.731 378.87 757.618 273.245 501.903 277.079C343.835 262.533 109.983 347.091 100.093 488.333C71.3152 626.493 245.848 752.218 501.563 748.384ZM506.242 565.79C705.042 562.809 865.779 516.592 864.513 432.134C863.246 347.675 701.06 281.625 502.26 284.606C303.46 287.587 143.327 358.471 144.594 442.929C145.86 527.387 307.442 568.771 506.242 565.79Z"/>
</mask>
<path fill-rule="evenodd" clip-rule="evenodd" d="M501.563 748.384C757.278 744.549 963.915 637.266 957.823 508.068C951.731 378.87 757.618 273.245 501.903 277.079C343.835 262.533 109.983 347.091 100.093 488.333C71.3152 626.493 245.848 752.218 501.563 748.384ZM506.242 565.79C705.042 562.809 865.779 516.592 864.513 432.134C863.246 347.675 701.06 281.625 502.26 284.606C303.46 287.587 143.327 358.471 144.594 442.929C145.86 527.387 307.442 568.771 506.242 565.79Z" fill="#FFAF13"/>
<path d="M957.823 508.068L952.829 508.304L952.829 508.304L957.823 508.068ZM501.563 748.384L501.488 743.384L501.488 743.384L501.563 748.384ZM501.903 277.079L501.445 282.058L501.711 282.083L501.978 282.079L501.903 277.079ZM100.093 488.333L104.988 489.353L105.057 489.021L105.081 488.682L100.093 488.333ZM864.513 432.134L869.512 432.059L869.512 432.059L864.513 432.134ZM506.242 565.79L506.167 560.79L506.167 560.79L506.242 565.79ZM502.26 284.606L502.335 289.605L502.335 289.605L502.26 284.606ZM144.594 442.929L149.593 442.854L149.593 442.854L144.594 442.929ZM952.829 508.304C955.733 569.909 907.874 627.641 825.549 670.809C743.521 713.821 628.738 741.476 501.488 743.384L501.638 753.383C630.103 751.457 746.496 723.553 830.193 679.665C913.591 635.934 966.005 575.426 962.817 507.833L952.829 508.304ZM501.978 282.079C629.188 280.171 740.795 305.503 821.173 347.127C901.734 388.845 949.905 446.302 952.829 508.304L962.817 507.833C959.649 440.637 907.718 380.682 825.771 338.247C743.641 295.716 630.334 270.153 501.828 272.08L501.978 282.079ZM105.081 488.682C109.828 420.879 168.554 365.576 247.541 328.819C326.253 292.19 423.35 274.872 501.445 282.058L502.362 272.1C422.389 264.741 323.526 282.429 243.322 319.752C163.393 356.948 100.247 414.544 95.1051 487.984L105.081 488.682ZM501.488 743.384C374.392 745.29 267.892 714.981 196.926 667.452C125.942 619.911 91.1583 555.747 104.988 489.353L95.1979 487.313C80.2497 559.079 118.344 626.858 191.361 675.761C264.396 724.675 373.02 755.312 501.638 753.383L501.488 743.384ZM859.513 432.208C859.803 451.525 850.898 468.959 833.672 484.519C816.364 500.153 790.87 513.665 758.765 524.791C694.586 547.034 605.289 559.304 506.167 560.79L506.317 570.789C605.995 569.294 696.467 556.966 762.04 534.24C794.811 522.882 821.689 508.818 840.375 491.939C859.144 474.986 869.856 454.971 869.512 432.059L859.513 432.208ZM502.335 289.605C601.229 288.122 690.78 303.823 755.576 330.211C787.983 343.409 813.964 359.185 831.843 376.613C849.701 394.021 859.222 412.8 859.513 432.208L869.512 432.059C869.17 409.238 857.943 388.089 838.823 369.452C819.723 350.835 792.495 334.449 759.348 320.949C693.033 293.943 602.091 278.108 502.185 279.607L502.335 289.605ZM149.593 442.854C149.302 423.446 158.256 404.389 175.584 386.454C192.933 368.498 218.429 351.949 250.426 337.786C314.401 309.467 403.441 291.088 502.335 289.605L502.185 279.607C402.279 281.105 311.853 299.659 246.378 328.641C213.65 343.129 186.925 360.324 168.393 379.505C149.84 398.707 139.252 420.183 139.594 443.004L149.593 442.854ZM506.167 560.79C407.045 562.277 317.539 552.688 252.84 532.379C220.476 522.219 194.648 509.478 176.923 494.371C159.283 479.336 149.883 462.176 149.593 442.854L139.594 443.004C139.938 465.911 151.211 485.596 170.436 501.981C189.576 518.295 216.806 531.548 249.845 541.92C315.955 562.672 406.639 572.284 506.317 570.789L506.167 560.79Z" fill="#A56D00" mask="url(#path-1-inside-1_231_26)"/>
<path d="M865.468 430.974C845.452 543.338 832.685 428.648 538.835 372.29C286.281 323.853 87.5836 592.974 154.65 399.447C193.646 343.217 350.531 274.059 549.478 284.353C743.274 294.381 854.083 350.111 865.468 430.974Z" fill="#D0931D"/>
</svg>
